<svg width="938" height="192" viewBox="0 0 938 192" fill="none" xmlns="http://www.w3.org/2000/svg">
<path d="M160.629 0.3031C156.792 1.55947 151.529 5.36254 144.466 12.0519L140.154 16.0926L135.977 15.2777C126.673 13.478 120.595 12.8668 109.186 12.5272C94.1775 12.0858 77.7429 13.9194 67.3863 17.2471L64.8396 18.0621L61.478 15.04C57.4033 11.3388 53.023 8.0111 50.2726 6.551C45.6546 4.03825 41.5459 2.81584 39.4406 3.35914C38.2522 3.66474 36.2827 5.46441 35.5017 6.92451C33.736 10.388 33.2267 14.1232 32.7853 25.9059C32.3778 36.636 32.3438 36.8058 28.6766 40.7446C24.6019 45.091 20.4593 47.5358 13.1588 49.9128C9.83108 50.9993 9.21987 51.3389 8.64262 52.2557C7.86164 53.546 7.82768 54.2252 8.54075 55.7192C8.94822 56.6021 9.6613 57.1454 11.461 58.0622C12.7852 58.7073 14.0756 59.2506 14.3133 59.2506C15.0263 59.2506 19.7802 61.5936 20.2895 62.2048C20.663 62.6462 20.4593 62.9858 18.8633 64.4119C15.3998 67.5019 9.9669 70.7617 4.36418 73.1047C2.4966 73.8857 2.02122 76.1947 3.41341 77.8585C4.09253 78.6734 4.70374 78.9451 6.57131 79.2507C10.1367 79.8619 13.0908 80.6768 15.1282 81.5597C17.2335 82.4765 20.2555 84.7176 21.0705 85.94C21.5798 86.755 21.5798 86.8568 20.4253 88.3848C19.7802 89.2677 17.4032 92.12 15.1622 94.7346C7.99746 102.986 4.83956 108.385 2.42869 116.331C-0.491517 126.042 -0.79712 137.893 1.61375 147.706C4.43209 159.251 11.0874 169.54 19.7802 176.025C27.4881 181.73 38.1503 185.465 50.4423 186.755C58.0824 187.57 64.5001 187.299 71.5969 185.872L74.9585 185.193L76.5884 186.382C78.9313 188.046 81.7157 189.404 85.0774 190.49C88.9144 191.713 95.0264 192.052 98.3202 191.203C105.417 189.404 110.137 184.616 111.223 178.029C111.835 174.463 111.02 173.003 108.405 173.003C106.741 173.003 105.926 174.056 105.315 177.044C104.195 182.409 100.663 185.091 94.2455 185.465C88.9483 185.771 82.4288 183.529 78.7276 180.134C77.9466 179.387 76.9619 178.708 76.5205 178.606C76.0791 178.504 74.3813 178.776 72.7514 179.251C65.2471 181.424 55.8074 181.696 46.0281 179.998C26.6732 176.67 14.3133 166.857 8.71053 150.422C6.63922 144.242 6.16384 141.051 6.16384 133.275C6.16384 127.672 6.26571 126.076 6.94483 122.918C8.88031 113.784 12.208 107.298 18.6936 99.9978C22.2589 96.0249 24.7717 92.901 26.2997 90.5241C28.7445 86.721 28.2012 84.1743 24.0246 80.2354C21.8175 78.1641 16.8939 75.2099 15.6036 75.2099C14.6528 75.2099 15.2301 74.6666 18.0824 72.833C19.8141 71.7125 22.7004 69.3016 25.2131 66.8907C28.7106 63.5291 29.4576 62.6123 29.6274 61.5936C29.8651 59.9637 28.7106 58.6394 26.1299 57.5868C25.0094 57.1454 23.0739 56.2625 21.8175 55.6173L19.4746 54.4628L22.3269 53.0367C29.4915 49.4034 35.0943 44.1402 37.8447 38.4356L38.8634 36.3304L39.2369 26.4831C39.5765 16.8397 39.8141 14.3948 40.6291 11.4067C41.0366 9.98055 41.0705 9.94659 42.259 10.1503C43.9228 10.422 47.8957 12.4254 50.3065 14.225C51.4271 15.006 54.585 17.7225 57.3693 20.2352C63.2777 25.4984 62.7683 25.3626 68.7446 23.6648C70.8838 23.0536 74.8566 22.1028 77.5731 21.5595C95.6716 17.9942 113.397 17.9942 134.144 21.6274C143.414 23.2234 142.361 23.495 147.658 18.2658C150.137 15.8549 152.819 13.3761 153.668 12.731C154.517 12.0858 155.909 10.9313 156.826 10.1503C158.66 8.52044 160.935 7.09429 162.225 6.78869C163.108 6.551 163.142 6.65286 163.889 9.06374C164.874 12.4593 165.723 17.8583 166.402 25.2947C167.081 32.765 167.386 33.512 171.325 37.5188C176.079 42.3745 181.308 45.5664 187.93 47.7056L189.763 48.2829L188.473 49.1657C187.76 49.6411 185.655 50.524 183.821 51.1352C180.935 52.052 180.324 52.3576 179.78 53.2744C178.999 54.5647 178.965 55.2438 179.645 56.5342C180.222 57.6207 183.719 60.3033 188.677 63.4612C191.461 65.2269 191.767 65.4985 191.224 65.8381C182.293 71.0334 177.811 77.8245 179.067 84.2762C180.358 90.7618 185.689 96.2966 193.804 99.5903C195.061 100.1 196.113 100.575 196.113 100.677C196.113 100.779 194.585 101.39 192.718 102.001C189.865 102.918 189.22 103.258 188.813 104.072C187.93 105.804 188.167 106.789 190.137 109.404C195.977 117.146 200.154 131.679 199.339 141.424C198.999 145.295 199.033 145.295 197.539 144.378C195.943 143.36 191.903 141.764 190.986 141.764C188.779 141.764 187.319 143.835 187.93 146.042C188.473 148.045 188.371 154.056 187.76 156.5C186.707 160.575 185.044 163.394 181.682 166.789C179.101 169.37 178.083 170.151 175.706 171.271C171.631 173.241 168.269 174.022 163.855 174.022C161.852 174.022 159.373 173.852 158.32 173.648C155.672 173.105 154.993 173.377 153.6 175.448C149.967 180.881 145.926 183.937 140.29 185.431C137.573 186.178 132.989 186.042 130.714 185.193C127.217 183.869 124.806 180.847 124.806 177.723C124.806 175.074 124.229 173.682 122.904 173.139C120.901 172.29 118.999 173.377 118.592 175.516C118.32 177.078 118.999 181.051 119.882 183.088C121.648 187.027 126.47 190.728 131.156 191.713C134.246 192.324 140.392 191.917 143.312 190.898C149.084 188.861 151.971 186.925 155.774 182.545L157.743 180.304L162.904 180.27C168.507 180.27 171.869 179.658 176.011 177.995C183.448 174.973 189.662 168.793 192.378 161.764C193.465 158.911 194.415 154.191 194.415 151.577C194.415 150.66 194.551 149.913 194.721 149.913C194.891 149.913 195.977 150.66 197.166 151.611C199.611 153.512 201.173 153.818 202.633 152.663C203.617 151.882 204.059 150.558 204.806 146.008C205.519 141.492 205.281 132.12 204.297 127.672C202.972 121.526 200.154 114.022 197.471 109.505C196.894 108.555 196.453 107.638 196.453 107.502C196.453 107.332 197.404 106.857 198.592 106.415C199.746 106.008 201.648 105.227 202.802 104.718C203.957 104.174 205.451 103.529 206.096 103.258C207.76 102.578 208.473 101.356 208.235 99.5564C207.964 97.6888 207.217 97.1455 204.025 96.4664C200.561 95.7193 195.672 94.0555 193.736 92.9689C189.56 90.592 186.504 87.3662 185.451 84.2422C184.704 81.9672 184.772 81.1183 185.757 78.979C187.556 75.142 192.887 71.339 198.66 69.777C203.583 68.4867 204.263 67.9773 204.263 65.6683C204.263 63.8347 203.448 63.0877 199.882 61.7634C195.977 60.3033 194.551 59.5902 191.597 57.6547L189.288 56.1267L191.257 54.9382C193.702 53.4781 194.823 52.6292 197.234 50.4221C199.067 48.7583 199.169 48.5545 199.169 47.0605C199.169 44.6156 198.252 43.9705 193.023 42.7141C185.96 41.0163 181.478 38.6394 177.2 34.2591C173.566 30.5918 173.227 29.709 172.548 22.4084C171.359 9.84472 169.526 3.63078 166.198 1.08409C164.772 0.031452 162.463 -0.308108 160.629 0.3031Z" fill="black"/>
<path d="M132.582 46.2455C131.359 46.9925 130.51 48.5545 130.476 50.0485C130.375 53.7497 134.415 56.0927 137.403 54.0553C138.863 53.0706 139.407 52.018 139.407 49.9467C139.407 48.4866 139.271 48.147 138.082 46.9925C136.928 45.804 136.588 45.6682 135.128 45.6682C134.212 45.6682 133.057 45.9399 132.582 46.2455Z" fill="black"/>
<path d="M78.0145 50.4221C75.332 52.0519 75.2301 56.1606 77.8107 58.198C79.7123 59.692 82.0892 59.4543 83.8888 57.5189C85.2471 56.1606 85.4848 53.3083 84.3982 51.8143C82.9381 49.7429 80.1537 49.1317 78.0145 50.4221Z" fill="black"/>
<path d="M107.149 60.5409C106.436 60.8805 105.722 61.6275 105.349 62.3746C104.806 63.4951 104.806 63.7328 105.213 64.7854C105.485 65.3966 106.13 66.2455 106.639 66.653L107.59 67.4L106.979 68.996C106.232 70.8975 103.991 73.4442 102.497 74.0554C101.885 74.3271 100.595 74.5308 99.6104 74.5308C97.3014 74.5308 95.6376 73.5461 94.1435 71.305C93.4305 70.2184 92.7174 69.5732 92.0722 69.4034C90.6461 69.0299 89.0162 69.8109 88.4729 71.1012C87.5221 73.4442 90.2726 77.417 94.1775 79.3525C96.2828 80.4052 96.6902 80.4731 99.8481 80.4731C102.87 80.4731 103.447 80.3712 105.179 79.5223C106.232 79.013 107.964 77.7227 109.016 76.704C110.85 74.9043 110.952 74.8364 111.665 75.3457C114.483 77.417 116.419 78.2659 119.441 78.7753C121.206 79.0469 124.568 78.4018 126.605 77.3831C131.257 75.0062 134.11 69.2676 131.767 67.0605C130.103 65.4985 127.726 66.1776 126.809 68.5206C126.232 69.9807 124.534 71.7464 123.142 72.3576C120.493 73.4782 117.301 72.5274 115.094 70.0146C113.397 68.0112 112.989 67.0944 113.634 66.5851C115.604 65.091 115.841 62.782 114.144 61.0842C113.057 59.9976 112.853 59.9297 110.68 59.9297C109.118 59.9297 107.93 60.1335 107.149 60.5409Z" fill="black"/>
<path d="M345.02 51.656V141H327.1V82.888L303.164 141H289.596L265.532 82.888V141H247.612V51.656H267.964L296.38 118.088L324.796 51.656H345.02ZM428.657 104.008C428.657 106.568 428.486 108.872 428.145 110.92H376.305C376.732 116.04 378.524 120.051 381.681 122.952C384.838 125.853 388.721 127.304 393.329 127.304C399.985 127.304 404.721 124.445 407.537 118.728H426.865C424.817 125.555 420.892 131.187 415.089 135.624C409.286 139.976 402.161 142.152 393.713 142.152C386.886 142.152 380.742 140.659 375.281 137.672C369.905 134.6 365.681 130.291 362.609 124.744C359.622 119.197 358.129 112.797 358.129 105.544C358.129 98.2053 359.622 91.7627 362.609 86.216C365.596 80.6693 369.777 76.4027 375.153 73.416C380.529 70.4293 386.716 68.936 393.713 68.936C400.454 68.936 406.47 70.3867 411.761 73.288C417.137 76.1893 421.276 80.328 424.177 85.704C427.164 90.9947 428.657 97.096 428.657 104.008ZM410.097 98.888C410.012 94.28 408.348 90.6107 405.105 87.88C401.862 85.064 397.894 83.656 393.201 83.656C388.764 83.656 385.009 85.0213 381.937 87.752C378.95 90.3973 377.116 94.1093 376.433 98.888H410.097ZM481.033 69.064C489.481 69.064 496.308 71.752 501.513 77.128C506.718 82.4187 509.321 89.8427 509.321 99.4V141H491.401V101.832C491.401 96.2 489.993 91.8907 487.177 88.904C484.361 85.832 480.521 84.296 475.657 84.296C470.708 84.296 466.782 85.832 463.881 88.904C461.065 91.8907 459.657 96.2 459.657 101.832V141H441.737V70.088H459.657V78.92C462.046 75.848 465.076 73.4587 468.745 71.752C472.5 69.96 476.596 69.064 481.033 69.064ZM521.754 105.288C521.754 98.12 523.162 91.7627 525.978 86.216C528.879 80.6693 532.805 76.4027 537.754 73.416C542.703 70.4293 548.207 68.936 554.266 68.936C558.874 68.936 563.269 69.96 567.45 72.008C571.631 73.9707 574.959 76.616 577.434 79.944V46.28H595.61V141H577.434V130.504C575.215 134.003 572.101 136.819 568.09 138.952C564.079 141.085 559.429 142.152 554.138 142.152C548.165 142.152 542.703 140.616 537.754 137.544C532.805 134.472 528.879 130.163 525.978 124.616C523.162 118.984 521.754 112.541 521.754 105.288ZM577.562 105.544C577.562 101.192 576.709 97.48 575.002 94.408C573.295 91.2507 570.991 88.8613 568.09 87.24C565.189 85.5333 562.074 84.68 558.746 84.68C555.418 84.68 552.346 85.4907 549.53 87.112C546.714 88.7333 544.41 91.1227 542.618 94.28C540.911 97.352 540.058 101.021 540.058 105.288C540.058 109.555 540.911 113.309 542.618 116.552C544.41 119.709 546.714 122.141 549.53 123.848C552.431 125.555 555.503 126.408 558.746 126.408C562.074 126.408 565.189 125.597 568.09 123.976C570.991 122.269 573.295 119.88 575.002 116.808C576.709 113.651 577.562 109.896 577.562 105.544ZM661.532 126.792H690.972V141H643.612V51.656H661.532V126.792ZM697.754 105.288C697.754 98.12 699.162 91.7627 701.978 86.216C704.879 80.6693 708.762 76.4027 713.626 73.416C718.575 70.4293 724.079 68.936 730.138 68.936C735.429 68.936 740.037 70.0027 743.962 72.136C747.973 74.2693 751.173 76.9573 753.562 80.2V70.088H771.61V141H753.562V130.632C751.258 133.96 748.058 136.733 743.962 138.952C739.951 141.085 735.301 142.152 730.01 142.152C724.037 142.152 718.575 140.616 713.626 137.544C708.762 134.472 704.879 130.163 701.978 124.616C699.162 118.984 697.754 112.541 697.754 105.288ZM753.562 105.544C753.562 101.192 752.709 97.48 751.002 94.408C749.295 91.2507 746.991 88.8613 744.09 87.24C741.189 85.5333 738.074 84.68 734.746 84.68C731.418 84.68 728.346 85.4907 725.53 87.112C722.714 88.7333 720.41 91.1227 718.618 94.28C716.911 97.352 716.058 101.021 716.058 105.288C716.058 109.555 716.911 113.309 718.618 116.552C720.41 119.709 722.714 122.141 725.53 123.848C728.431 125.555 731.503 126.408 734.746 126.408C738.074 126.408 741.189 125.597 744.09 123.976C746.991 122.269 749.295 119.88 751.002 116.808C752.709 113.651 753.562 109.896 753.562 105.544ZM807.032 80.456C809.336 77.0427 812.493 74.2693 816.504 72.136C820.6 70.0027 825.251 68.936 830.456 68.936C836.515 68.936 841.976 70.4293 846.84 73.416C851.789 76.4027 855.672 80.6693 858.488 86.216C861.389 91.6773 862.84 98.0347 862.84 105.288C862.84 112.541 861.389 118.984 858.488 124.616C855.672 130.163 851.789 134.472 846.84 137.544C841.976 140.616 836.515 142.152 830.456 142.152C825.165 142.152 820.515 141.128 816.504 139.08C812.579 136.947 809.421 134.216 807.032 130.888V141H789.112V46.28H807.032V80.456ZM844.536 105.288C844.536 101.021 843.64 97.352 841.848 94.28C840.141 91.1227 837.837 88.7333 834.936 87.112C832.12 85.4907 829.048 84.68 825.72 84.68C822.477 84.68 819.405 85.5333 816.504 87.24C813.688 88.8613 811.384 91.2507 809.592 94.408C807.885 97.5653 807.032 101.277 807.032 105.544C807.032 109.811 807.885 113.523 809.592 116.68C811.384 119.837 813.688 122.269 816.504 123.976C819.405 125.597 822.477 126.408 825.72 126.408C829.048 126.408 832.12 125.555 834.936 123.848C837.837 122.141 840.141 119.709 841.848 116.552C843.64 113.395 844.536 109.64 844.536 105.288ZM902.998 142.152C897.195 142.152 891.99 141.128 887.382 139.08C882.774 136.947 879.105 134.088 876.374 130.504C873.729 126.92 872.278 122.952 872.022 118.6H890.07C890.411 121.331 891.734 123.592 894.038 125.384C896.427 127.176 899.371 128.072 902.87 128.072C906.283 128.072 908.929 127.389 910.806 126.024C912.769 124.659 913.75 122.909 913.75 120.776C913.75 118.472 912.555 116.765 910.166 115.656C907.862 114.461 904.15 113.181 899.03 111.816C893.739 110.536 889.387 109.213 885.974 107.848C882.646 106.483 879.745 104.392 877.27 101.576C874.881 98.76 873.686 94.9627 873.686 90.184C873.686 86.2587 874.795 82.6747 877.014 79.432C879.318 76.1893 882.561 73.6293 886.742 71.752C891.009 69.8747 896.001 68.936 901.718 68.936C910.166 68.936 916.907 71.0693 921.942 75.336C926.977 79.5173 929.75 85.192 930.262 92.36H913.11C912.854 89.544 911.659 87.3253 909.526 85.704C907.478 83.9973 904.705 83.144 901.206 83.144C897.963 83.144 895.446 83.7413 893.654 84.936C891.947 86.1307 891.094 87.7947 891.094 89.928C891.094 92.3173 892.289 94.152 894.678 95.432C897.067 96.6267 900.779 97.864 905.814 99.144C910.934 100.424 915.158 101.747 918.486 103.112C921.814 104.477 924.673 106.611 927.062 109.512C929.537 112.328 930.817 116.083 930.902 120.776C930.902 124.872 929.75 128.541 927.446 131.784C925.227 135.027 921.985 137.587 917.718 139.464C913.537 141.256 908.63 142.152 902.998 142.152Z" fill="black"/>
</svg>
